<?xml version="1.0" encoding="utf-8"?>
<!-- Generator: Adobe Illustrator 27.5.0, SVG Export Plug-In . SVG Version: 6.00 Build 0)  -->
<svg version="1.1" xmlns="http://www.w3.org/2000/svg" xmlns:xlink="http://www.w3.org/1999/xlink" x="0px" y="0px"
	 viewBox="0 0 750 500" style="enable-background:new 0 0 750 500;" xml:space="preserve">
<g id="BACKGROUND">
	<rect style="fill:#FFFFFF;" width="750" height="500"/>
</g>
<g id="OBJECTS">
	<g>
		<defs>
			<rect id="SVGID_1_" width="750" height="500"/>
		</defs>
		<clipPath id="SVGID_00000116942800433076514970000008531642174010268034_">
			<use xlink:href="#SVGID_1_"  style="overflow:visible;"/>
		</clipPath>
		<g style="clip-path:url(#SVGID_00000116942800433076514970000008531642174010268034_);">
			<g>
				<path style="fill:none;stroke:#FFFFFF;stroke-miterlimit:10;" d="M-50.966,290.782
					c102.131,133.826,220.696-12.913,329.87,45.783c109.174,58.696,246.793,121.001,306.391,38.739
					c83.348-115.044-187.826-179.609-56.348-329.87C631.763-72.069,369.817-142.392,369.817-142.392"/>
				<path style="fill:none;stroke:#FBFBFB;stroke-miterlimit:10;" d="M-51.71,296.137c102.038,130.294,221.98-11.855,332.612,46.158
					c110.753,58.035,249.102,119.314,308.975,37.591c84.058-114.566-182.491-182.112-54.651-332.712
					c26.873-31.8,27.887-60.133,15.655-84.836c-34-68.663-172.716-106.733-172.716-106.733"/>
				<path style="fill:none;stroke:#F8F8F8;stroke-miterlimit:10;" d="M-52.454,301.492
					C49.491,428.254,170.809,290.695,282.9,348.025c112.333,57.374,251.41,117.626,311.558,36.443
					c84.769-114.088-176.823-184.342-52.955-335.553c26.165-31.94,26.87-60.495,15.315-85.554
					c-32.856-71.253-170.305-109.758-170.305-109.758"/>
				<path style="fill:none;stroke:#F4F4F4;stroke-miterlimit:10;" d="M-53.199,306.846c101.853,123.23,224.548-9.739,338.096,46.908
					c113.912,56.713,253.719,115.938,314.141,35.295c85.479-113.611-171.325-186.724-51.258-338.396
					c25.421-32.113,25.869-60.874,14.975-86.272c-31.694-73.89-167.895-112.784-167.895-112.784"/>
				<path style="fill:none;stroke:#F0F0F0;stroke-miterlimit:10;" d="M-53.943,312.201c101.76,119.698,225.832-8.681,340.839,47.283
					c115.492,56.052,256.028,114.25,316.724,34.146c86.19-113.133-165.828-189.116-49.561-341.238
					c24.677-32.287,24.884-61.27,14.635-86.991c-30.511-76.57-165.485-115.809-165.485-115.809"/>
				<path style="fill:none;stroke:#ECECEC;stroke-miterlimit:10;" d="M-54.687,317.556
					c101.668,116.166,227.116-7.623,343.581,47.658c117.071,55.392,258.336,112.563,319.308,32.998
					c86.9-112.656-160.334-191.519-47.865-344.079c23.933-32.464,23.914-61.679,14.294-87.709
					C545.329-112.864,411.557-152.41,411.557-152.41"/>
				<path style="fill:none;stroke:#E9E9E9;stroke-miterlimit:10;" d="M-55.431,322.911c101.575,112.633,228.4-6.565,346.323,48.033
					c118.65,54.731,260.645,110.875,321.891,31.85c87.611-112.178-154.844-193.933-46.168-346.922
					c23.188-32.643,22.961-62.1,13.954-88.427c-28.066-82.041-160.664-121.859-160.664-121.859"/>
				<path style="fill:none;stroke:#E5E5E5;stroke-miterlimit:10;" d="M-56.176,328.265
					c101.483,109.101,229.684-5.507,349.065,48.408c120.23,54.07,262.788,109.057,324.475,30.702
					c88.085-111.887-149.358-196.357-44.472-349.763c22.442-32.824,22.022-62.533,13.614-89.146
					c-26.799-84.826-158.254-124.884-158.254-124.884"/>
				<path style="fill:none;stroke:#E1E1E1;stroke-miterlimit:10;" d="M-56.92,333.62c101.39,105.569,230.969-4.449,351.807,48.784
					c121.809,53.409,265.079,107.354,327.058,29.554c88.77-111.432-143.877-198.793-42.775-352.605
					c21.696-33.007,21.098-62.974,13.274-89.864c-25.5-87.637-155.844-127.909-155.844-127.909"/>
				<path style="fill:none;stroke:#DDDDDD;stroke-miterlimit:10;" d="M-57.664,338.975c101.297,102.037,232.253-3.391,354.55,49.159
					c123.389,52.748,267.372,105.652,329.641,28.405C715.984,305.563,488.125,215.3,585.448,61.092
					c20.949-33.193,20.188-63.424,12.934-90.582c-24.167-90.472-153.433-130.935-153.433-130.935"/>
				<path style="fill:none;stroke:#DADADA;stroke-miterlimit:10;" d="M-58.408,344.329c101.205,98.505,233.537-2.333,357.292,49.534
					c124.968,52.087,269.667,103.951,332.224,27.257c90.147-110.518-132.932-203.696-39.382-358.289
					c20.2-33.381,19.292-63.88,12.594-91.3c-22.799-93.328-151.023-133.96-151.023-133.96"/>
				<path style="fill:none;stroke:#D6D6D6;stroke-miterlimit:10;" d="M-59.153,349.684c101.112,94.973,234.821-1.275,360.034,49.909
					c126.547,51.427,271.963,102.251,334.808,26.109c90.839-110.059-127.47-206.164-37.685-361.131
					C617.455,31,616.413,0.23,610.258-27.448c-21.394-96.202-148.613-136.985-148.613-136.985"/>
				<path style="fill:none;stroke:#D2D2D2;stroke-miterlimit:10;" d="M-59.897,355.039c101.02,91.441,236.105-0.217,362.776,50.284
					c128.127,50.766,274.26,100.552,337.391,24.961c91.532-109.599-122.015-208.643-35.989-363.973
					c18.699-33.763,17.537-64.807,11.913-92.737c-19.954-99.089-146.202-140.01-146.202-140.01"/>
				<path style="fill:none;stroke:#CECECE;stroke-miterlimit:10;" d="M-60.641,360.394c100.927,87.909,237.389,0.841,365.519,50.659
					c129.706,50.105,276.56,98.854,339.974,23.813C737.08,325.728,528.283,223.735,610.56,68.05
					c17.946-33.958,16.678-65.277,11.573-93.455C603.656-127.393,478.341-168.44,478.341-168.44"/>
				<path style="fill:none;stroke:#CBCBCB;stroke-miterlimit:10;" d="M-61.385,365.748c100.835,84.377,238.673,1.899,368.261,51.035
					c131.286,49.444,278.86,97.157,342.558,22.664c92.926-108.674-111.132-213.629-32.595-369.657
					c17.192-34.155,15.829-65.749,11.233-94.173c-16.962-104.897-141.382-146.06-141.382-146.06"/>
				<path style="fill:none;stroke:#C7C7C7;stroke-miterlimit:10;" d="M-62.13,371.103c100.742,80.844,239.957,2.957,371.003,51.41
					c132.865,48.783,281.162,95.461,345.141,21.516C747.64,335.819,548.31,227.891,623.116,71.53
					c16.435-34.353,14.991-66.223,10.893-94.892c-15.411-107.812-138.972-149.085-138.972-149.085"/>
				<path style="fill:none;stroke:#C3C3C3;stroke-miterlimit:10;" d="M-62.874,376.458c100.649,77.312,241.241,4.015,373.745,51.785
					c134.444,48.122,283.466,93.766,347.724,20.368c94.327-107.744-100.287-218.655-29.202-375.341
					c15.676-34.554,14.162-66.698,10.552-95.61c-13.824-110.732-136.561-152.111-136.561-152.111"/>
				<path style="fill:none;stroke:#C0C0C0;stroke-miterlimit:10;" d="M-63.618,381.813c100.557,73.78,242.525,5.073,376.488,52.16
					c136.024,47.462,285.771,92.073,350.308,19.22c95.031-107.276-94.881-221.18-27.505-378.183
					c14.915-34.757,13.342-67.173,10.212-96.328c-12.2-113.655-134.151-155.136-134.151-155.136"/>
				<path style="fill:none;stroke:#BCBCBC;stroke-miterlimit:10;" d="M-64.362,387.167c100.464,70.248,243.81,6.131,379.23,52.535
					c137.603,46.801,288.077,90.38,352.891,18.072c95.737-106.807-89.487-223.714-25.809-381.025
					c14.152-34.961,12.53-67.649,9.872-97.046C641.28-136.877,520.081-178.458,520.081-178.458"/>
				<path style="fill:none;stroke:#B8B8B8;stroke-miterlimit:10;" d="M-65.107,392.522c100.372,66.716,245.094,7.189,381.972,52.91
					c139.183,46.14,290.385,88.689,355.474,16.923c96.445-106.336-84.104-226.255-24.112-383.867
					c13.385-35.166,11.726-68.125,9.532-97.764c-8.848-119.503-129.33-161.186-129.33-161.186"/>
				<path style="fill:none;stroke:#B4B4B4;stroke-miterlimit:10;" d="M-65.851,397.877c100.279,63.184,246.378,8.247,384.714,53.285
					c140.762,45.479,292.694,86.999,358.058,15.775c97.154-105.864-78.735-228.802-22.416-386.709
					c12.616-35.374,10.93-68.6,9.192-98.483c-7.12-122.424-126.92-164.211-126.92-164.211"/>
				<path style="fill:none;stroke:#B1B1B1;stroke-miterlimit:10;" d="M-66.595,403.231c100.187,59.652,247.662,9.305,387.457,53.66
					c142.341,44.818,295.004,85.309,360.641,14.627c97.866-105.389-73.379-231.355-20.719-389.551
					c11.845-35.582,10.14-69.074,8.851-99.201c-5.36-125.342-124.51-167.236-124.51-167.236"/>
				<path style="fill:none;stroke:#ADADAD;stroke-miterlimit:10;" d="M-67.339,408.586c100.094,56.12,248.946,10.363,390.199,54.035
					c143.921,44.158,297.316,83.622,363.224,13.479c98.58-104.913-68.036-233.914-19.022-392.393
					c11.07-35.792,9.356-69.547,8.511-99.919c-3.568-128.255-122.1-170.261-122.1-170.261"/>
				<path style="fill:none;stroke:#A9A9A9;stroke-miterlimit:10;" d="M-68.084,413.941c100.002,52.587,250.23,11.421,392.941,54.41
					c145.5,43.497,299.629,81.935,365.808,12.331c99.296-104.435-62.708-236.476-17.326-395.235
					c10.292-36.003,8.578-70.018,8.171-100.637c-1.744-131.164-119.689-173.287-119.689-173.287"/>
				<path style="fill:none;stroke:#A5A5A5;stroke-miterlimit:10;" d="M-68.828,419.296c99.909,49.055,251.514,12.479,395.683,54.786
					c147.08,42.836,301.943,80.25,368.391,11.182c100.013-103.955-57.393-239.042-15.629-398.077
					c9.51-36.214,7.806-70.487,7.831-101.356c0.11-134.065-117.279-176.312-117.279-176.312"/>
				<path style="fill:none;stroke:#A2A2A2;stroke-miterlimit:10;" d="M-69.572,424.65c99.817,45.523,252.798,13.537,398.426,55.161
					c148.659,42.175,304.258,78.566,370.974,10.034c100.733-103.473-52.094-241.61-13.932-400.919
					c8.726-36.426,7.038-70.955,7.491-102.074c1.992-136.96-114.869-179.337-114.869-179.337"/>
				<path style="fill:none;stroke:#9E9E9E;stroke-miterlimit:10;" d="M-70.316,430.005c99.724,41.991,254.082,14.595,401.168,55.536
					c150.238,41.514,306.575,76.883,373.557,8.886c101.454-102.989-46.808-244.179-12.236-403.761
					c7.937-36.638,6.275-71.42,7.15-102.792c3.903-139.846-112.459-182.362-112.459-182.362"/>
				<path style="fill:none;stroke:#9A9A9A;stroke-miterlimit:10;" d="M-71.061,435.36c99.631,38.459,255.367,15.653,403.91,55.911
					c151.818,40.854,308.892,75.201,376.141,7.738c102.177-102.504-41.537-246.749-10.539-406.603
					c7.146-36.851,5.516-71.883,6.81-103.51c5.84-142.724-110.048-185.387-110.048-185.387"/>
				<path style="fill:none;stroke:#979797;stroke-miterlimit:10;" d="M-71.805,440.714c99.539,34.927,256.651,16.711,406.652,56.286
					c153.397,40.193,311.211,73.521,378.724,6.59c102.902-102.015-36.281-249.318-8.843-409.445
					c6.351-37.063,4.761-72.344,6.47-104.229c7.803-145.593-107.638-188.412-107.638-188.412"/>
				<path style="fill:none;stroke:#939393;stroke-miterlimit:10;" d="M-72.549,446.069c99.446,31.395,257.935,17.768,409.395,56.661
					c154.977,39.532,313.531,71.842,381.308,5.441c103.629-101.525-31.039-251.885-7.146-412.287
					c5.552-37.275,4.01-72.803,6.13-104.947c9.791-148.453-105.228-191.437-105.228-191.437"/>
				<path style="fill:none;stroke:#8F8F8F;stroke-miterlimit:10;" d="M-73.293,451.424c99.354,27.863,259.219,18.827,412.137,57.036
					c156.556,38.871,315.852,70.165,383.891,4.293c104.357-101.033-25.811-254.45-5.45-415.129
					c4.75-37.486,3.262-73.259,5.79-105.665c11.803-151.303-102.817-194.463-102.817-194.463"/>
				<path style="fill:none;stroke:#8B8B8B;stroke-miterlimit:10;" d="M-74.037,456.779c99.261,24.331,260.503,19.884,414.879,57.412
					c158.135,38.21,318.174,68.488,386.474,3.145c105.087-100.539-20.597-257.012-3.753-417.971
					c3.945-37.697,2.517-73.713,5.449-106.383c13.837-154.142-100.407-197.488-100.407-197.488"/>
				<path style="fill:none;stroke:#888888;stroke-miterlimit:10;" d="M-74.782,462.133c99.169,20.798,261.787,20.942,417.621,57.787
					c159.715,37.549,320.498,66.814,389.058,1.997c105.819-100.042-15.396-259.568-2.056-420.813
					c3.136-37.906,1.774-74.164,5.109-107.102c15.893-156.972-97.997-200.513-97.997-200.513"/>
				<path style="fill:none;stroke:#848484;stroke-miterlimit:10;" d="M-75.526,467.488c99.076,17.266,263.071,22,420.363,58.162
					c161.294,36.889,322.822,65.14,391.641,0.849c106.553-99.543-10.209-262.12-0.36-423.655
					c2.324-38.115,1.035-74.613,4.769-107.82c17.97-159.791-95.587-203.538-95.587-203.538"/>
				<path style="fill:none;stroke:#808080;stroke-miterlimit:10;" d="M-76.27,472.843c98.984,13.734,264.355,23.058,423.106,58.537
					c162.874,36.228,325.147,63.469,394.224-0.299c107.288-99.042-5.034-264.665,1.337-426.497
					c1.509-38.322,0.297-75.059,4.429-108.538c20.067-162.599-93.176-206.563-93.176-206.563"/>
				<path style="fill:none;stroke:#7C7C7C;stroke-miterlimit:10;" d="M-77.015,478.197c98.891,10.202,265.639,24.116,425.848,58.912
					c164.453,35.567,327.595,61.932,396.807-1.448c108.215-98.329,0.129-267.203,3.034-429.339
					c0.69-38.528-0.438-75.503,4.089-109.256c22.182-165.396-90.766-209.588-90.766-209.588"/>
				<path style="fill:none;stroke:#797979;stroke-miterlimit:10;" d="M-77.759,483.552c98.798,6.67,266.923,25.174,428.59,59.287
					c166.033,34.906,329.903,60.244,399.391-2.596c108.925-97.852,5.281-269.734,4.73-432.181
					c-0.131-38.731-1.171-75.944,3.748-109.975c24.315-168.183-88.356-212.613-88.356-212.613"/>
				<path style="fill:none;stroke:#757575;stroke-miterlimit:10;" d="M-78.503,488.907c98.706,3.138,268.208,26.232,431.332,59.662
					c167.612,34.245,332.212,58.556,401.974-3.744c109.635-97.374,10.422-272.256,6.427-435.023
					c-0.956-38.934-1.903-76.383,3.408-110.693c26.465-170.959-85.945-215.639-85.945-215.639"/>
				<path style="fill:none;stroke:#717171;stroke-miterlimit:10;" d="M-79.247,494.261c98.613-0.394,269.492,27.29,434.075,60.038
					c169.191,33.584,334.521,56.868,404.557-4.892c110.346-96.897,15.553-274.77,8.123-437.865
					c-1.783-39.133-2.633-76.819,3.068-111.411c28.631-173.724-83.535-218.664-83.535-218.664"/>
				<path style="fill:none;stroke:#6D6D6D;stroke-miterlimit:10;" d="M-79.992,499.616c98.521-3.926,270.776,28.348,436.817,60.413
					c170.771,32.924,336.829,55.181,407.141-6.04c111.056-96.419,20.674-277.274,9.82-440.707
					c-2.612-39.331-3.361-77.253,2.728-112.129c30.812-176.479-81.125-221.689-81.125-221.689"/>
				<path style="fill:none;stroke:#6A6A6A;stroke-miterlimit:10;" d="M-80.736,504.971c98.428-7.458,272.06,29.406,439.559,60.788
					c172.35,32.263,339.138,53.493,409.724-7.189c111.767-95.941,25.558-279.748,11.517-443.549
					c-3.499-39.522-4.088-77.684,2.388-112.848c33.008-179.223-78.715-224.714-78.715-224.714"/>
				<path style="fill:none;stroke:#666666;stroke-miterlimit:10;" d="M-81.48,510.326
					c199.565-22.304,714.913,171.391,854.609,52.826s-19.956-378,15.261-559.957c35.217-181.956-76.304-227.739-76.304-227.739"/>
			</g>
			<g>
				<path style="fill:none;stroke:#FFFFFF;stroke-miterlimit:10;" d="M268.826,650.279
					C62.217,503.565,29.348,437.826,104.478,326.304c75.13-111.522-66.913-93.913-63.391-171.391
					c3.522-77.478,262.956,1.174,285.261-122.087C348.652-90.435,219.522-133.87,219.522-133.87"/>
				<path style="fill:none;stroke:#F9F9F9;stroke-miterlimit:10;" d="M266.75,650.562C60.98,504.797,24.533,438.051,97.259,326.306
					c72.727-111.745-66.578-97.938-60.932-175.807c5.646-77.87,256.871-0.783,278.081-121.025
					c21.211-120.242-106.69-161.721-106.69-161.721"/>
				<path style="fill:none;stroke:#F3F3F3;stroke-miterlimit:10;" d="M264.674,650.844
					C59.743,506.028,19.718,438.276,90.041,326.307S23.798,224.345,31.569,146.084c7.77-78.261,250.785-2.739,270.902-119.963
					c20.117-117.224-106.554-156.747-106.554-156.747"/>
				<path style="fill:none;stroke:#EDEDED;stroke-miterlimit:10;" d="M262.598,651.126
					C58.505,507.259,14.903,438.502,82.822,326.309c67.919-112.192-65.907-105.987-56.012-184.64s244.7-4.696,263.723-118.901
					c19.023-114.205-106.418-151.773-106.418-151.773"/>
				<path style="fill:none;stroke:#E7E7E7;stroke-miterlimit:10;" d="M260.522,651.408
					C57.268,508.491,10.087,438.727,75.603,326.311S10.032,216.298,22.05,137.255s238.614-6.652,256.543-117.839
					S172.311-127.383,172.311-127.383"/>
				<path style="fill:none;stroke:#E1E1E1;stroke-miterlimit:10;" d="M258.446,651.691C56.03,509.722,5.272,438.952,68.384,326.312
					S3.148,212.275,17.291,132.84s232.529-8.609,249.364-116.776C283.49-92.104,160.508-125.761,160.508-125.761"/>
				<path style="fill:none;stroke:#DADADA;stroke-miterlimit:10;" d="M256.37,651.973C54.793,510.953,0.457,439.177,61.165,326.314
					C121.873,213.45-3.735,208.252,12.532,128.426S238.975,117.86,254.716,12.711c15.741-105.149-106.01-136.851-106.01-136.851"/>
				<path style="fill:none;stroke:#D4D4D4;stroke-miterlimit:10;" d="M254.294,652.255C53.555,512.185-4.358,439.402,53.946,326.315
					c58.304-113.087-64.565-122.087-46.174-202.304S228.13,111.489,242.778,9.359c14.647-102.131-105.874-131.877-105.874-131.877"
					/>
				<path style="fill:none;stroke:#CECECE;stroke-miterlimit:10;" d="M252.218,652.537C52.318,513.416-9.173,439.627,46.728,326.317
					s-64.23-126.112-43.714-206.721c20.516-80.609,214.272-14.478,227.826-113.59C244.392-93.105,125.1-120.896,125.1-120.896"/>
				<path style="fill:none;stroke:#C8C8C8;stroke-miterlimit:10;" d="M250.142,652.82C51.08,514.648-13.988,439.853,39.509,326.318
					S-24.385,196.182-1.746,115.182c22.64-81,208.187-16.435,220.646-112.528c12.459-96.093-105.603-121.928-105.603-121.928"/>
				<path style="fill:none;stroke:#C2C2C2;stroke-miterlimit:10;" d="M248.066,653.102C49.843,515.879-18.803,440.078,32.29,326.32
					C83.383,212.562-31.269,192.158-6.505,110.767C18.259,29.376,195.596,92.376,206.962-0.699
					c11.366-93.075-105.467-116.954-105.467-116.954"/>
				<path style="fill:none;stroke:#BCBCBC;stroke-miterlimit:10;" d="M245.99,653.384C48.605,517.11-23.618,440.303,25.071,326.322
					C73.761,212.34-38.152,188.135-11.264,106.353S184.752,86.005,195.023-4.051c10.272-90.056-105.331-111.98-105.331-111.98"/>
				<path style="fill:none;stroke:#B6B6B6;stroke-miterlimit:10;" d="M243.915,653.666
					C47.368,518.342-28.433,440.528,17.853,326.323c46.286-114.205-62.888-142.211-33.876-224.385S173.907,79.634,183.085-7.404
					C192.262-94.441,77.89-114.41,77.89-114.41"/>
				<path style="fill:none;stroke:#B0B0B0;stroke-miterlimit:10;" d="M241.839,653.949
					C46.131,519.573-33.248,440.753,10.634,326.325C54.516,211.896-51.919,180.089-20.782,97.523
					C10.354,14.958,163.062,73.262,171.146-10.756C179.23-94.775,66.087-112.788,66.087-112.788"/>
				<path style="fill:none;stroke:#AAAAAA;stroke-miterlimit:10;" d="M239.763,654.231C44.893,520.805-38.063,440.978,3.415,326.326
					C44.893,211.674-58.803,176.065-25.542,93.109S152.217,66.891,159.207-14.109c6.99-81-104.923-97.058-104.923-97.058"/>
				<path style="fill:none;stroke:#A4A4A4;stroke-miterlimit:10;" d="M237.687,654.513C43.656,522.036-42.879,441.203-3.804,326.328
					S-65.686,172.042-30.301,88.694C5.084,5.346,141.373,60.52,147.269-17.461c5.896-77.981-104.787-92.084-104.787-92.084"/>
				<path style="fill:none;stroke:#9D9D9D;stroke-miterlimit:10;" d="M235.611,654.795
					C42.418,523.267-47.694,441.429-11.023,326.329S-72.569,168.019-35.06,84.28C2.449,0.54,130.528,54.149,135.33-20.813
					c4.802-74.963-104.651-87.11-104.651-87.11"/>
				<path style="fill:none;stroke:#979797;stroke-miterlimit:10;" d="M233.535,655.078
					C41.181,524.499-52.509,441.654-18.242,326.331C16.025,211.008-79.453,163.995-39.819,79.865
					C-0.186-4.265,119.683,47.778,123.392-24.166C127.1-96.11,18.876-106.301,18.876-106.301"/>
				<path style="fill:none;stroke:#919191;stroke-miterlimit:10;" d="M231.459,655.36C39.943,525.73-57.324,441.879-25.46,326.332
					C6.403,210.786-86.336,159.972-44.578,75.451C-2.821-9.071,108.839,41.407,111.453-27.518
					C114.067-96.444,7.074-104.68,7.074-104.68"/>
				<path style="fill:none;stroke:#8B8B8B;stroke-miterlimit:10;" d="M229.383,655.642
					C38.706,526.961-62.139,442.104-32.679,326.334c29.46-115.77-60.54-170.385-16.658-255.298
					c43.882-84.913,147.331-36,148.852-101.907c1.521-65.907-104.243-72.187-104.243-72.187"/>
				<path style="fill:none;stroke:#858585;stroke-miterlimit:10;" d="M227.307,655.924
					C37.468,528.193-66.954,442.329-39.898,326.336s-60.205-174.41-14.199-259.714C-8.091-18.683,87.149,28.665,87.576-34.223
					c0.427-62.888-104.107-67.213-104.107-67.213"/>
				<path style="fill:none;stroke:#7F7F7F;stroke-miterlimit:10;" d="M225.231,656.207c-189-126.783-297-213.652-272.348-329.87
					s-59.87-178.435-11.739-264.13c48.13-85.696,135.16-39.913,134.493-99.783S-28.334-99.815-28.334-99.815"/>
			</g>
			<g>
				<path style="fill:none;stroke:#F2F2F2;stroke-miterlimit:10;" d="M-110.417,434.304C24.652,274.652,145.742,331,184.98,386.174
					c39.238,55.174,58.02,91.565,134.325,83.348c76.304-8.217,131.478-127.957,217.174-76.304s120.913,28.174,145.565-17.609
					c24.652-45.783-64.565-147.913-18.783-207.783s191.348-9.391,191.348-9.391"/>
				<path style="fill:none;stroke:#F0F0F0;stroke-miterlimit:10;" d="M-107.586,443.703
					c135.069-159.652,257.041-110.97,296.279-55.796c39.238,55.174,54.445,95.814,130.75,87.596
					c76.304-8.217,131.508-123.037,217.203-71.385c85.696,51.652,116.665,18.112,141.317-27.671
					c24.652-45.783-52.482-136.449-6.699-196.319s183.483-15.713,183.483-15.713"/>
				<path style="fill:none;stroke:#EEEEEE;stroke-miterlimit:10;" d="M-104.755,453.102
					C30.314,293.45,153.168,334.466,192.406,389.64c39.238,55.174,50.871,100.062,127.175,91.845s131.537-118.118,217.233-66.466
					s112.416,8.05,137.068-37.733c24.652-45.783-40.398-124.985,5.385-184.854s175.619-22.034,175.619-22.034"/>
				<path style="fill:none;stroke:#ECECEC;stroke-miterlimit:10;" d="M-101.924,462.501
					c135.069-159.652,258.805-126.302,298.043-71.128c39.238,55.174,47.296,104.311,123.6,96.093
					c76.304-8.217,131.567-113.199,217.262-61.547s108.168-2.012,132.82-47.795c24.652-45.783-28.314-113.521,17.468-173.39
					c45.783-59.87,167.754-28.355,167.754-28.355"/>
				<path style="fill:none;stroke:#EAEAEA;stroke-miterlimit:10;" d="M-99.093,471.9
					c135.069-159.652,259.687-133.968,298.925-78.794c39.238,55.174,43.721,108.559,120.025,100.342s131.596-108.279,217.292-56.627
					c85.696,51.652,103.919-12.075,128.571-57.857c24.652-45.783-16.231-102.057,29.552-161.926s159.889-34.676,159.889-34.676"/>
				<path style="fill:none;stroke:#E8E8E8;stroke-miterlimit:10;" d="M-96.262,481.299
					c135.069-159.652,260.57-141.634,299.807-86.46c39.238,55.174,40.146,112.807,116.45,104.59s131.625-103.36,217.321-51.708
					s99.671-22.137,124.323-67.919c24.652-45.783-4.147-90.593,41.636-150.462S855.3,188.342,855.3,188.342"/>
				<path style="fill:none;stroke:#E7E7E7;stroke-miterlimit:10;" d="M-93.431,490.697
					c135.069-159.652,261.452-149.3,300.689-94.126c39.238,55.174,36.571,117.056,112.875,108.839s131.655-98.441,217.35-46.789
					c85.696,51.652,95.422-32.199,120.075-77.981c24.652-45.783,7.937-79.129,53.719-138.998
					c45.783-59.87,144.16-47.319,144.16-47.319"/>
				<path style="fill:none;stroke:#E5E5E5;stroke-miterlimit:10;" d="M-90.6,500.096C44.469,340.444,171.734,343.13,210.972,398.304
					c39.238,55.174,32.996,121.304,109.3,113.087c76.304-8.217,131.684-93.522,217.38-41.87
					c85.696,51.652,91.174-42.261,115.826-88.043s20.02-67.664,65.803-127.534s136.296-53.64,136.296-53.64"/>
				<path style="fill:none;stroke:#E3E3E3;stroke-miterlimit:10;" d="M-87.769,509.495
					C47.3,349.843,175.448,344.863,214.685,400.037c39.238,55.174,29.421,125.553,105.725,117.335
					c76.304-8.217,131.714-88.602,217.409-36.95c85.696,51.652,86.925-52.323,111.578-98.106s32.104-56.2,77.886-116.07
					s128.431-59.961,128.431-59.961"/>
				<path style="fill:none;stroke:#E1E1E1;stroke-miterlimit:10;" d="M-84.938,518.894
					C50.131,359.242,179.161,346.596,218.398,401.77c39.238,55.174,25.846,129.801,102.151,121.584s131.743-83.683,217.439-32.031
					c85.696,51.652,82.677-62.385,107.329-108.168s44.188-44.736,89.97-104.606s120.566-66.282,120.566-66.282"/>
				<path style="fill:none;stroke:#DFDFDF;stroke-miterlimit:10;" d="M-82.107,528.293
					c135.069-159.652,264.981-179.964,304.218-124.79c39.238,55.174,22.271,134.05,98.576,125.832s131.772-78.764,217.468-27.112
					s78.429-72.447,103.081-118.23c24.652-45.783,56.271-33.272,102.054-93.142s112.702-72.604,112.702-72.604"/>
				<path style="fill:none;stroke:#DDDDDD;stroke-miterlimit:10;" d="M-79.276,537.692
					c135.069-159.652,265.863-187.63,305.1-132.456c39.238,55.174,18.696,138.298,95.001,130.081s131.802-73.845,217.498-22.193
					c85.696,51.652,74.18-82.509,98.832-128.292c24.652-45.783,68.355-21.808,114.137-81.678S856.13,224.23,856.13,224.23"/>
				<path style="fill:none;stroke:#DBDBDB;stroke-miterlimit:10;" d="M-76.445,547.091
					C58.624,387.438,190.3,351.795,229.538,406.969c39.238,55.174,15.121,142.547,91.426,134.329s131.831-68.925,217.527-17.273
					c85.696,51.652,69.932-92.571,94.584-138.354c24.652-45.783,80.438-10.344,126.221-70.214s96.972-85.246,96.972-85.246"/>
				<path style="fill:none;stroke:#D9D9D9;stroke-miterlimit:10;" d="M-73.614,556.489
					C61.455,396.837,194.013,353.528,233.251,408.702c39.238,55.174,11.547,146.795,87.851,138.578s131.861-64.006,217.556-12.354
					s65.683-102.634,90.335-148.416c24.652-45.783,92.522,1.12,138.305-58.75s89.108-91.567,89.108-91.567"/>
				<path style="fill:none;stroke:#D7D7D7;stroke-miterlimit:10;" d="M-70.783,565.888
					C64.286,406.236,197.727,355.261,236.964,410.435c39.238,55.174,7.972,151.043,84.276,142.826
					c76.304-8.217,131.89-59.087,217.586-7.435c85.696,51.652,61.435-112.696,86.087-158.478
					c24.652-45.783,104.606,12.584,150.388-47.285s81.243-97.888,81.243-97.888"/>
				<path style="fill:none;stroke:#D5D5D5;stroke-miterlimit:10;" d="M-67.952,575.287
					C67.117,415.635,201.44,356.994,240.677,412.168c39.238,55.174,4.397,155.292,80.701,147.074s131.92-54.168,217.615-2.516
					c85.696,51.652,57.186-122.758,81.839-168.54c24.652-45.783,116.689,24.048,162.472-35.821s73.379-104.21,73.379-104.21"/>
				<path style="fill:none;stroke:#D4D4D4;stroke-miterlimit:10;" d="M-65.121,584.686
					C69.948,425.034,205.153,358.727,244.391,413.901c39.238,55.174,0.822,159.54,77.126,151.323s131.949-49.248,217.645,2.404
					s52.938-132.82,77.59-178.602c24.652-45.783,128.773,35.512,174.556-24.357s65.514-110.531,65.514-110.531"/>
				<path style="fill:none;stroke:#D2D2D2;stroke-miterlimit:10;" d="M-62.29,594.085
					C72.779,434.433,208.866,360.46,248.104,415.634c39.238,55.174-2.753,163.789,73.551,155.571s131.978-44.329,217.674,7.323
					c85.696,51.652,48.689-142.882,73.342-188.665c24.652-45.783,140.857,46.976,186.639-12.893
					c45.783-59.87,57.649-116.852,57.649-116.852"/>
				<path style="fill:none;stroke:#D0D0D0;stroke-miterlimit:10;" d="M-59.459,603.484
					C75.61,443.832,212.579,362.193,251.817,417.366c39.238,55.174-6.328,168.037,69.976,159.82s132.008-39.41,217.703,12.242
					c85.696,51.652,44.441-152.944,69.093-198.727c24.652-45.783,152.94,58.44,198.723-1.429s49.785-123.173,49.785-123.173"/>
				<path style="fill:none;stroke:#CECECE;stroke-miterlimit:10;" d="M-56.628,612.883
					C78.441,453.23,216.293,363.925,255.53,419.099c39.238,55.174-9.903,172.286,66.402,164.068
					c76.304-8.217,132.037-34.491,217.733,17.161c85.696,51.652,40.193-163.006,64.845-208.789
					c24.652-45.783,165.024,69.905,210.807,10.035s41.92-129.495,41.92-129.495"/>
				<path style="fill:none;stroke:#CCCCCC;stroke-miterlimit:10;" d="M-53.797,622.281
					c135.069-159.652,273.803-256.623,313.04-201.449c39.238,55.174-13.478,176.534,62.827,168.317
					c76.304-8.217,132.067-29.571,217.762,22.081c85.696,51.652,35.944-173.068,60.596-218.851
					c24.652-45.783,177.108,81.369,222.89,21.499c45.783-59.87,34.056-135.816,34.056-135.816"/>
				<path style="fill:none;stroke:#CACACA;stroke-miterlimit:10;" d="M-50.966,631.68
					C84.103,472.028,223.719,367.391,262.956,422.565c39.238,55.174-17.053,180.783,59.252,172.565
					c76.304-8.217,132.096-24.652,217.792,27c85.696,51.652,31.696-183.13,56.348-228.913
					C621,347.435,785.539,486.05,831.322,426.181s26.191-142.137,26.191-142.137"/>
			</g>
			<g>
				<path style="fill:none;stroke:#ECECEC;stroke-miterlimit:10;" d="M-85.633,268.625c50.497,9.464,108.452,17.183,148.187-15.385
					c25.362-20.788,37.205-53.984,42.291-86.38c5.496-35.007,6.868-75.687,34.906-97.356c12.11-9.359,27.627-13.426,42.909-14.259
					c18.233-0.994,36.689,2.358,53.408,9.699c28.471,12.502,54.693,36.89,85.552,33.059c33.537-4.164,54.359-38.276,82.699-53.943
					c34.936-19.313,80.773-23.218,117.378-6.157c36.916,17.206,51.694,61.114,78.808,91.505
					c35.245,39.505,94.123,54.843,145.158,40.762c51.035-14.081,92.799-55.628,110.478-105.531"/>
				<path style="fill:none;stroke:#EAEAEA;stroke-miterlimit:10;" d="M-86.121,261.651c54.838,8.057,113.844,24.003,153.578-8.565
					c25.362-20.788,32.462-59.482,36.9-93.2c4.61-35.021,6.868-75.687,34.906-97.356c12.11-9.359,27.627-13.426,42.909-14.259
					c18.233-0.994,37.195,2.746,53.649,10.728c28.185,13.672,54.801,40.843,85.66,37.012c33.537-4.164,55.111-40.319,82.888-56.566
					c34.355-20.22,80.236-25.577,116.841-8.515c36.916,17.206,52.211,60.747,78.808,91.505
					c35.353,40.885,93.11,64.245,143.94,48.617c50.331-15.474,90.668-65.458,108.347-115.361"/>
				<path style="fill:none;stroke:#E9E9E9;stroke-miterlimit:10;" d="M-86.609,254.677c59.18,6.65,119.236,30.823,158.97-1.745
					c25.362-20.788,27.74-64.965,31.508-100.019c3.765-35.019,6.868-75.687,34.906-97.356c12.11-9.359,27.627-13.426,42.909-14.259
					c18.233-0.994,37.702,3.139,53.89,11.756c27.899,14.851,54.909,44.796,85.768,40.965c33.537-4.164,55.907-42.291,83.077-59.189
					c33.828-21.039,79.698-27.935,116.303-10.874c36.916,17.206,52.718,60.393,78.808,91.505
					c35.454,42.278,92.093,73.662,142.722,56.471c49.624-16.849,88.538-75.288,106.217-125.191"/>
				<path style="fill:none;stroke:#E7E7E7;stroke-miterlimit:10;" d="M-87.098,247.703c63.521,5.243,124.627,37.642,164.361,5.074
					c25.362-20.788,23.041-70.435,26.117-106.839c2.958-35.005,6.868-75.687,34.906-97.356c12.11-9.359,27.627-13.426,42.909-14.259
					c18.233-0.994,38.209,3.538,54.13,12.785c27.613,16.037,55.017,48.749,85.876,44.918c33.537-4.164,56.68-44.306,83.266-61.812
					c33.273-21.91,79.16-30.293,115.765-13.232c36.916,17.206,53.215,60.052,78.808,91.505
					c35.545,43.685,91.073,83.096,141.503,64.326c48.916-18.206,86.407-85.118,104.087-135.021"/>
				<path style="fill:none;stroke:#E6E6E6;stroke-miterlimit:10;" d="M-87.586,240.729c67.863,3.836,130.019,44.462,169.753,11.894
					c25.362-20.788,18.365-75.894,20.725-113.659c2.186-34.982,6.868-75.687,34.906-97.356c12.11-9.359,27.627-13.426,42.909-14.259
					c18.233-0.994,38.715,3.941,54.371,13.813c27.327,17.231,55.125,52.702,85.984,48.871c33.537-4.164,57.452-46.325,83.455-64.435
					C437.235,2.81,483.14-7.054,519.745,10.007c36.916,17.206,53.702,59.721,78.808,91.505
					c35.626,45.103,90.052,92.546,140.285,72.18c48.208-19.544,84.277-94.948,101.956-144.851"/>
				<path style="fill:none;stroke:#E4E4E4;stroke-miterlimit:10;" d="M-88.074,233.755c72.205,2.429,135.41,51.282,175.144,18.714
					c25.362-20.788,13.715-81.346,15.334-120.479c1.446-34.952,6.868-75.687,34.906-97.356c12.11-9.359,27.627-13.426,42.909-14.259
					c18.233-0.994,39.22,4.348,54.612,14.841c27.039,18.433,55.233,56.655,86.093,52.824c33.537-4.164,58.222-48.349,83.644-67.059
					c32.161-23.669,78.085-35.01,114.69-17.949c36.916,17.206,54.179,59.4,78.808,91.505
					c35.697,46.534,89.031,102.013,139.067,80.035c47.501-20.865,82.147-104.779,99.826-154.682"/>
				<path style="fill:none;stroke:#E2E2E2;stroke-miterlimit:10;" d="M-88.563,226.781c76.546,1.022,140.802,58.102,180.536,25.534
					c25.362-20.788,9.089-86.792,9.942-127.298c0.735-34.917,6.868-75.687,34.906-97.356c12.11-9.359,27.627-13.426,42.909-14.259
					c18.233-0.994,39.723,4.76,54.853,15.87c26.749,19.642,55.341,60.608,86.201,56.777c33.537-4.164,58.991-50.378,83.833-69.682
					c31.601-24.556,77.547-37.368,114.152-20.307c36.916,17.206,54.646,59.087,78.808,91.505
					c35.757,47.976,88.013,111.497,137.848,87.889c46.798-22.169,80.016-114.609,97.695-164.512"/>
				<path style="fill:none;stroke:#E1E1E1;stroke-miterlimit:10;" d="M-89.051,219.807c80.888-0.385,146.193,64.921,185.927,32.353
					c25.362-20.788,4.489-92.234,4.55-134.118c0.051-34.879,6.868-75.687,34.906-97.356c12.11-9.359,27.627-13.426,42.909-14.259
					c18.233-0.994,40.225,5.176,55.094,16.898c26.456,20.857,55.449,64.561,86.309,60.73c33.537-4.164,59.757-52.411,84.022-72.305
					c31.04-25.449,77.01-39.727,113.615-22.665c36.916,17.206,55.105,58.784,78.808,91.505
					c35.805,49.428,86.998,120.997,136.63,95.744c46.098-23.455,77.886-124.439,95.565-174.342"/>
				<path style="fill:none;stroke:#DFDFDF;stroke-miterlimit:10;" d="M-89.539,212.833c85.229-1.792,151.585,71.741,191.319,39.173
					c25.362-20.788-0.085-97.675-0.841-140.938c-0.609-34.839,6.868-75.687,34.906-97.356c12.11-9.359,27.627-13.426,42.909-14.259
					c18.233-0.994,40.724,5.595,55.334,17.927c26.159,22.079,55.557,68.514,86.417,64.683c33.537-4.164,60.522-54.447,84.21-74.928
					c30.475-26.348,76.472-42.085,113.077-25.024c36.916,17.206,55.554,58.487,78.808,91.505
					c35.84,50.891,85.989,130.514,135.412,103.598c45.404-24.726,75.755-134.269,93.434-184.172"/>
				<path style="fill:none;stroke:#DDDDDD;stroke-miterlimit:10;" d="M-90.028,205.859c89.571-3.199,156.976,78.561,196.711,45.993
					c25.362-20.788-4.634-103.115-6.233-147.758c-1.247-34.799,6.868-75.687,34.906-97.356c12.11-9.359,27.627-13.426,42.909-14.259
					c18.233-0.994,41.221,6.018,55.575,18.955c25.858,23.306,55.665,72.467,86.525,68.636c33.537-4.164,61.283-56.488,84.399-77.551
					c29.907-27.251,75.934-44.443,112.539-27.382c36.916,17.206,55.995,58.197,78.808,91.505
					c35.864,52.363,84.986,140.046,134.194,111.453c44.716-25.982,73.625-144.1,91.304-194.003"/>
				<path style="fill:none;stroke:#DCDCDC;stroke-miterlimit:10;" d="M-90.516,198.885c93.913-4.606,162.368,85.38,202.102,52.812
					c25.362-20.788-9.156-108.556-11.624-154.577c-1.864-34.76,6.868-75.687,34.906-97.356c12.11-9.359,27.627-13.426,42.909-14.259
					c18.233-0.994,41.716,6.443,55.816,19.984c25.552,24.539,55.773,76.42,86.633,72.589c33.537-4.164,62.042-58.533,84.588-80.174
					c29.336-28.158,75.397-46.802,112.002-29.74c36.916,17.206,56.427,57.913,78.808,91.505
					c35.874,53.845,83.99,149.592,132.975,119.307c44.035-27.225,71.495-153.93,89.174-203.833"/>
				<path style="fill:none;stroke:#DADADA;stroke-miterlimit:10;" d="M-91.004,191.911c98.254-6.013,167.759,92.2,207.494,59.632
					c25.362-20.788-13.653-113.999-17.016-161.397c-2.464-34.722,6.868-75.687,34.906-97.356
					c12.11-9.359,27.627-13.426,42.909-14.259c18.233-0.994,42.208,6.871,56.057,21.012c25.242,25.775,55.881,80.373,86.741,76.542
					c33.537-4.164,62.797-60.581,84.777-82.797c28.76-29.07,74.859-49.16,111.464-32.099c36.916,17.206,56.851,57.634,78.808,91.505
					c35.87,55.335,83.004,159.153,131.757,127.162c43.363-28.455,69.364-163.76,87.043-213.663"/>
				<path style="fill:none;stroke:#D9D9D9;stroke-miterlimit:10;" d="M-91.493,184.937c102.596-7.42,173.151,99.02,212.885,66.452
					c25.362-20.788-18.123-119.446-22.407-168.217c-3.047-34.688,6.868-75.687,34.906-97.356
					c12.11-9.359,27.627-13.426,42.909-14.259c18.233-0.994,42.697,7.3,56.297,22.04c24.927,27.016,55.989,84.326,86.849,80.495
					c33.537-4.164,63.55-62.631,84.966-85.42c28.18-29.986,74.321-51.518,110.926-34.457c36.916,17.206,57.268,57.36,78.808,91.505
					c35.853,56.833,82.028,168.728,130.539,135.016c42.699-29.673,67.234-173.59,84.913-223.493"/>
				<path style="fill:none;stroke:#D7D7D7;stroke-miterlimit:10;" d="M-91.981,177.963c106.937-8.827,178.543,105.84,218.277,73.272
					c25.362-20.788-22.569-124.898-27.799-175.037c-3.615-34.656,6.868-75.687,34.906-97.356
					c12.11-9.359,27.627-13.426,42.909-14.259c18.233-0.994,43.184,7.732,56.538,23.069c24.606,28.26,56.097,88.279,86.957,84.448
					c33.537-4.164,64.298-64.685,85.155-88.043c27.595-30.906,73.784-53.877,110.389-36.815
					c36.916,17.206,57.676,57.09,78.808,91.505c35.822,58.339,81.063,178.315,129.321,142.871
					c42.045-30.88,65.103-183.42,82.782-233.323"/>
				<path style="fill:none;stroke:#D5D5D5;stroke-miterlimit:10;" d="M-92.469,170.989C18.81,160.754,91.465,283.648,131.199,251.08
					c25.362-20.788-26.989-130.355-33.19-181.856c-4.17-34.628,6.868-75.687,34.906-97.356c12.11-9.359,27.627-13.426,42.909-14.259
					c18.233-0.994,43.667,8.164,56.779,24.097c24.281,29.506,56.205,92.232,87.065,88.401c33.537-4.164,65.043-66.741,85.344-90.667
					c27.006-31.829,73.246-56.235,109.851-39.174c36.916,17.206,58.077,56.824,78.808,91.505
					c35.777,59.853,80.11,187.913,128.102,150.726c41.4-32.079,62.973-193.251,80.652-243.154"/>
				<path style="fill:none;stroke:#D4D4D4;stroke-miterlimit:10;" d="M-92.958,164.015
					c115.621-11.641,189.326,119.479,229.06,86.911c25.362-20.788-31.384-135.819-38.582-188.676
					c-4.712-34.605,6.868-75.687,34.906-97.356c12.11-9.359,27.627-13.426,42.909-14.259c18.233-0.994,44.149,8.598,57.02,25.126
					c23.95,30.755,56.313,96.185,87.173,92.354c33.537-4.164,65.785-68.799,85.533-93.29
					c26.411-32.754,72.708-58.593,109.313-41.532c36.916,17.206,58.471,56.561,78.808,91.505
					c35.718,61.373,79.168,197.522,126.884,158.58c40.765-33.269,60.842-203.081,78.522-252.984"/>
				<path style="fill:none;stroke:#D2D2D2;stroke-miterlimit:10;" d="M-93.446,157.041
					c119.962-13.048,194.717,126.299,234.451,93.731c25.362-20.788-35.755-141.291-43.974-195.496
					c-5.244-34.586,6.868-75.687,34.906-97.356c12.11-9.359,27.627-13.426,42.909-14.259c18.233-0.994,44.627,9.033,57.26,26.154
					c23.615,32.005,56.421,100.138,87.281,96.307c33.537-4.164,66.522-70.859,85.721-95.913
					c25.811-33.683,72.171-60.952,108.775-43.89c36.916,17.206,58.858,56.301,78.808,91.505
					c35.644,62.899,78.24,207.14,125.666,166.435C758.5,149.805,777.071-28.653,794.75-78.556"/>
				<path style="fill:none;stroke:#D0D0D0;stroke-miterlimit:10;" d="M-93.934,150.067
					C30.37,135.611,106.175,283.185,145.909,250.617c25.362-20.788-40.102-146.771-49.365-202.315
					c-5.766-34.573,6.868-75.687,34.906-97.356c12.11-9.359,27.627-13.426,42.909-14.259c18.233-0.994,45.104,9.468,57.501,27.183
					c23.274,33.256,56.529,104.091,87.389,100.26c33.537-4.164,67.256-72.92,85.91-98.536
					c25.206-34.613,71.633-63.31,108.238-46.249c36.916,17.206,59.238,56.042,78.808,91.505
					c35.555,64.432,77.325,216.767,124.448,174.289c39.527-35.631,56.582-222.741,74.261-272.644"/>
				<path style="fill:none;stroke:#CFCFCF;stroke-miterlimit:10;" d="M-94.423,143.093c128.645-15.862,205.5,139.938,245.235,107.37
					c25.362-20.788-44.425-152.259-54.757-209.135c-6.278-34.564,6.868-75.687,34.906-97.356
					c12.11-9.359,27.627-13.426,42.909-14.259c18.233-0.994,45.577,9.903,57.742,28.211C254.541-7.567,288.25,65.968,319.109,62.136
					c33.537-4.164,67.986-74.982,86.099-101.159c24.595-35.545,71.095-65.668,107.7-48.607
					c36.916,17.206,59.612,55.786,78.808,91.505c35.452,65.969,76.424,226.401,123.229,182.144
					c38.923-36.804,54.451-232.572,72.13-282.475"/>
				<path style="fill:none;stroke:#CDCDCD;stroke-miterlimit:10;" d="M-94.911,136.119
					c132.987-17.269,210.892,146.758,250.626,114.19c25.362-20.788-48.726-157.757-60.148-215.955
					c-6.783-34.561,6.868-75.687,34.906-97.356c12.11-9.359,27.627-13.426,42.909-14.259c18.233-0.994,46.049,10.339,57.983,29.24
					C253.944-12.26,288.11,63.975,318.97,60.144c33.536-4.164,68.713-77.045,86.288-103.782
					c23.979-36.479,70.557-68.027,107.162-50.965c36.916,17.206,59.98,55.531,78.808,91.505
					c35.333,67.512,75.536,236.041,122.011,189.998c38.33-37.973,52.321-242.402,70-292.305"/>
				<path style="fill:none;stroke:#CCCCCC;stroke-miterlimit:10;" d="M-95.399,129.145
					c137.329-18.676,216.283,153.578,256.018,121.01C185.98,229.367,107.614,86.89,95.079,27.38
					c-7.281-34.564,6.868-75.687,34.906-97.356c12.11-9.359,27.627-13.426,42.909-14.259c18.233-0.994,46.496,10.788,58.223,30.268
					c22.182,37.041,56.854,115.95,87.713,112.119c33.536-4.164,69.402-79.129,86.477-106.405
					c23.312-37.441,70.02-70.385,106.625-53.324c36.916,17.206,60.342,55.277,78.808,91.505
					c35.201,69.06,74.661,245.686,120.793,197.853c37.747-39.14,50.19-252.232,67.87-302.135"/>
				<path style="fill:none;stroke:#CACACA;stroke-miterlimit:10;" d="M-95.887,122.171C45.783,102.087,125.787,282.568,165.522,250
					c25.362-20.788-57.261-168.783-70.931-229.594c-7.772-34.573,6.868-75.687,34.906-97.356
					c12.11-9.359,27.627-13.426,42.909-14.259C190.639-92.203,219.391-80,230.87-59.913
					c21.867,38.268,56.962,119.903,87.821,116.072c33.536-4.164,70.154-81.172,86.666-109.028
					c22.73-38.348,69.482-72.743,106.087-55.682c36.916,17.206,60.698,55.025,78.808,91.505
					c35.053,70.611,73.8,255.336,119.575,205.707c37.174-40.304,48.06-262.062,65.739-311.965"/>
			</g>
		</g>
	</g>
</g>
</svg>
